<svg xmlns="http://www.w3.org/2000/svg" width="807" height="534"><path d="m64.54 285.285 2.152.169c2.312.187 4.622.396 6.933.608l2.413.213C153.842 293.168 230.278 322.595 295 366l1.822 1.219c14.945 10.032 29.67 20.465 43.272 32.273 2.756 2.379 5.566 4.668 8.406 6.945 5.872 4.782 11.382 9.913 16.908 15.084 2.422 2.25 4.887 4.453 7.342 6.666 5.166 4.732 10.163 9.618 15.125 14.563.714.71 1.428 1.418 2.163 2.15A200.245 200.245 0 0 1 402 458c5.107-4.267 9.853-8.744 14.516-13.488 1.43-1.444 2.861-2.887 4.293-4.33 2.217-2.243 4.433-4.487 6.647-6.734 14.991-15.204 14.991-15.204 23.226-21.602 2.608-2.077 5.019-4.309 7.443-6.596 7.21-6.618 15.035-12.404 22.875-18.25l2.38-1.785c17.866-13.387 36.301-25.196 55.577-36.437 2.46-1.437 4.91-2.888 7.356-4.348C580.043 324.55 618.365 310.29 656 300l2.832-.789c28.451-7.853 58.12-12.828 87.652-13.383l2.956-.057c2.56.229 2.56.229 5.872 2.354C757 291 757 291 757 294c-1.04 3.122-2.008 5.376-4 8-2.574.688-2.574.688-5.688.785l-3.514.161-3.798.116c-2.654.134-5.308.274-7.96.426l-2.046.114C681.818 306.432 633.44 322.779 590 343l-3.537 1.642C561.912 356.08 538.697 369.2 516 384c3.448-1.356 6.84-2.8 10.219-4.32C566.705 361.572 608.453 348.51 652 340l3.444-.675C676.156 335.34 697.01 332.923 718 331l3.562-.328c9.61-.787 19.18-.787 28.813-.735 1.622.006 3.245.01 4.867.014 3.92.011 7.839.028 11.758.049 3.885 9.535 7.35 19.195 10.765 28.906.703 1.992 1.41 3.982 2.121 5.97 1.034 2.89 2.054 5.783 3.071 8.679l.972 2.692.871 2.51.778 2.197c.51 2.473.505 3.752-.578 6.046-2.041 1.057-2.041 1.057-4.78 1.853l-3.128.936-3.451.977-3.593 1.06c-2.575.759-5.15 1.51-7.73 2.252-4.11 1.181-8.211 2.386-12.312 3.594-4.925 1.45-9.852 2.894-14.78 4.332-11.201 3.27-22.372 6.639-33.537 10.028-5.409 1.642-10.82 3.276-16.232 4.91l-3.296.995c-12.052 3.637-24.112 7.248-36.17 10.861a15807.547 15807.547 0 0 0-62.616 18.89 17218.135 17218.135 0 0 1-71.222 21.47c-8.301 2.485-16.6 4.975-24.9 7.466a35683.83 35683.83 0 0 1-12.408 3.72c-9.785 2.934-19.57 5.873-29.349 8.828-4.632 1.4-9.265 2.796-13.898 4.193-2.213.668-4.427 1.337-6.64 2.008a5394.97 5394.97 0 0 1-9.192 2.775l-2.74.835c-8.002 2.401-13.315 3.358-21.46.72l-2.547-.789a961.863 961.863 0 0 1-5.527-1.735 1443.87 1443.87 0 0 0-8.993-2.813c-3.271-1.014-6.542-2.03-9.812-3.049-13.462-4.195-26.961-8.262-40.462-12.328l-6.124-1.847c-18.033-5.442-36.078-10.836-54.178-16.05-9.023-2.608-18-5.343-26.966-8.139-18.24-5.687-36.532-11.205-54.823-16.726l-11.506-3.476a25877.355 25877.355 0 0 0-64.675-19.463C76.944 404.605 47.975 395.794 19 387c.611-6.47 2.625-12.226 4.781-18.332l1.132-3.251c1.19-3.412 2.388-6.82 3.587-10.23a15185.8 15185.8 0 0 0 2.418-6.935c2.946-8.437 2.946-8.437 4.424-12.638.297-.845.593-1.69.9-2.56C37 331 37 331 38 329c85.406-1.584 174.317 17.11 256 58-49.089-49.089-149.693-78.305-217.332-83.828l-2.369-.195a580.417 580.417 0 0 0-11.472-.814l-4.151-.292-3.69-.22C52 301 52 301 50.134 299.132c-1.839-3.46-2.49-6.533-1.634-10.383 3.883-4.53 10.6-3.906 16.04-3.465Z" fill="#B0B0B0"/><path d="m746.484 285.828 2.956-.057c2.56.229 2.56.229 5.872 2.354C757 291 757 291 757 294c-1.04 3.122-2.008 5.376-4 8-2.574.688-2.574.688-5.688.785l-3.514.161-3.798.116c-2.654.134-5.308.274-7.96.426l-2.046.114C681.818 306.432 633.44 322.779 590 343l-3.537 1.642C561.912 356.08 538.697 369.2 516 384c3.448-1.356 6.84-2.8 10.219-4.32C566.705 361.572 608.453 348.51 652 340l3.444-.675C676.156 335.34 697.01 332.923 718 331l3.562-.328c9.61-.787 19.18-.787 28.813-.735 1.622.006 3.245.01 4.867.014 3.92.011 7.839.028 11.758.049 3.885 9.535 7.35 19.195 10.765 28.906.703 1.992 1.41 3.982 2.121 5.97 1.034 2.89 2.054 5.783 3.071 8.679l.972 2.692.871 2.51.778 2.197c.51 2.473.505 3.752-.578 6.046-2.041 1.057-2.041 1.057-4.78 1.853l-3.128.936-3.451.977-3.593 1.06c-2.575.759-5.15 1.51-7.73 2.252-4.11 1.181-8.211 2.386-12.312 3.594-4.925 1.45-9.852 2.894-14.78 4.332-11.201 3.27-22.372 6.639-33.537 10.028-5.409 1.642-10.82 3.276-16.232 4.91l-3.296.995c-12.052 3.637-24.112 7.248-36.17 10.861a15807.547 15807.547 0 0 0-62.616 18.89 16415.025 16415.025 0 0 1-68.14 20.546c-8.327 2.493-16.653 4.992-24.977 7.493a18578.725 18578.725 0 0 1-21.785 6.53l-3.077.922a5969.183 5969.183 0 0 0-19.425 5.86 7946.55 7946.55 0 0 1-13.088 3.952c-2.07.625-4.139 1.254-6.207 1.885-2.853.87-5.71 1.73-8.567 2.589l-2.54.783c-4.32 1.286-8.006 2.05-12.569 1.752-.345-5.39-.635-10.78-.871-16.176a520.558 520.558 0 0 0-.29-5.656c-.15-2.785-.25-5.568-.339-8.356l-.166-2.604c-.1-4.78.446-7.468 3.741-11.022l1.927-2.094L409 452l1.828-1.916c1.88-1.94 3.78-3.856 5.688-5.768l2.11-2.12a3518.6 3518.6 0 0 1 4.397-4.404 2482.99 2482.99 0 0 0 6.622-6.661c6.757-6.784 13.472-13.392 21.037-19.28 2.606-2.08 5.018-4.314 7.443-6.601 7.21-6.618 15.035-12.404 22.875-18.25l2.38-1.785c17.866-13.387 36.301-25.196 55.577-36.437 2.46-1.437 4.91-2.888 7.356-4.348C580.043 324.55 618.365 310.29 656 300l2.832-.789c28.451-7.853 58.12-12.828 87.652-13.383Z" fill="#E2E2E2"/><path d="M377 27h61v74h92v47h-92v211h-61V148h-92v-47h92V27Z" fill="#C49A6B"/><path d="M429 432c0 4.956-3.656 7.582-7 11-3.586 3.423-7.283 6.72-11 10l-2-1 20-20Z" fill="#D0CECD"/></svg>