<svg xmlns="http://www.w3.org/2000/svg" width="400" height="400" fill-rule="evenodd"><path d="M193.2 85.215c-50.989 6.26-72.376 68.507-35.753 104.057 35.73 34.683 95.149 14.637 102.775-34.672 6.022-38.943-28.01-74.175-67.022-69.385m-30 129.468c-36.423 15.611-57.146 47.958-57.348 89.517L105.8 315h188.4l.121-6.4c.839-44.504-20.955-79.349-59.176-94.61l-2.256-.9-3.344 1.43c-19.188 8.203-40.986 8.14-59.5-.173-3.134-1.407-2.735-1.426-6.845.336" fill="#2b2b33"/><path d="M0 200v200h400V0H0v200M212 85.566c28.992 6.046 49.267 30.835 49.267 60.234 0 29.262-19.526 53.232-49.009 60.163-5.73 1.347-18.786 1.347-24.516 0-47.889-11.257-65.311-67.249-31.957-102.705C169.693 88.473 192.11 81.418 212 85.566m-43.38 127.611c.577.572 7.483 3.129 11.35 4.202 13.289 3.688 27.567 3.645 40.63-.12 3.472-1.001 10.268-3.575 10.78-4.082 1.198-1.188 8.946 2.021 17.82 7.379 30.036 18.135 46.019 48.348 45.517 86.044l-.117 8.8H105.4l-.117-8.8c-.39-29.294 7.882-51.331 26.706-71.149 10.136-10.67 33.814-25.068 36.631-22.274" fill="#fff"/><path d="M197.7 84.696c1.265.079 3.335.079 4.6 0s.23-.145-2.3-.145-3.565.065-2.3.145m-6.4.38c.385.1 1.015.1 1.4 0s.07-.183-.7-.183-1.085.082-.7.183m16 0c.385.1 1.015.1 1.4 0s.07-.183-.7-.183-1.085.082-.7.183M184.2 86.4c-.504.217-.578.344-.2.344.33 0 .96-.155 1.4-.344.504-.217.578-.344.2-.344-.33 0-.96.155-1.4.344m30.4 0c.44.189 1.07.344 1.4.344.378 0 .304-.127-.2-.344-.44-.189-1.07-.344-1.4-.344-.378 0-.304.127.2.344m-57.812 15.9L154.2 105l2.7-2.588c2.508-2.405 2.883-2.812 2.588-2.812-.061 0-1.276 1.215-2.7 2.7m86.012-.1 2.777 2.6c.11 0-.96-1.17-2.377-2.6l-2.777-2.6c-.11 0 .96 1.17 2.377 2.6m-103.886 38.4c.003 1.1.081 1.503.173.895s.09-1.509-.005-2-.171.005-.168 1.105m122 0c.003 1.1.081 1.503.173.895s.09-1.509-.005-2-.171.005-.168 1.105m-122.413 5.2c.004.88.086 1.193.182.695s.092-1.217-.008-1.6-.179.025-.174.905m122.8 0c.004.88.086 1.193.182.695s.092-1.217-.008-1.6-.179.025-.174.905M138.914 151c.003 1.1.081 1.503.173.895s.09-1.509-.005-2-.171.005-.168 1.105m122 0c.003 1.1.081 1.503.173.895s.09-1.509-.005-2-.171.005-.168 1.105M156.2 188.8l2.17 2c.11 0-.687-.9-1.77-2l-2.17-2c-.11 0 .687.9 1.77 2m87.185.1L241.4 191l2.1-1.985c1.951-1.844 2.283-2.215 1.985-2.215-.063 0-1.008.945-2.1 2.1m-79.116 6.732c.497.601 2.931 2.132 2.931 1.844 0-.093-.765-.674-1.7-1.291s-1.489-.865-1.231-.553m70.212.54c-1.858 1.313-2.119 1.689-.55.79.732-.419 1.519-.987 1.749-1.262.591-.707.313-.598-1.199.472M188.2 205.99c.764.338 3.314.567 2.967.266-.092-.08-.977-.252-1.967-.383-1.202-.159-1.534-.12-1 .117m21.8.01c-1.367.288-1.372.295-.2.319.66.014 1.56-.13 2-.319.962-.413.164-.413-1.8 0m-17.9.676c.385.1 1.015.1 1.4 0s.07-.183-.7-.183-1.085.082-.7.183m14.4 0c.385.1 1.015.1 1.4 0s.07-.183-.7-.183-1.085.082-.7.183m-8 .415c.825.087 2.175.087 3 0s.15-.157-1.5-.157-2.325.071-1.5.157M181 218c.44.189 1.07.344 1.4.344.378 0 .304-.127-.2-.344-.44-.189-1.07-.344-1.4-.344-.378 0-.304.127.2.344m9.9 1.876c.385.1 1.015.1 1.4 0s.07-.183-.7-.183-1.085.082-.7.183m16.8 0c.385.1 1.015.1 1.4 0s.07-.183-.7-.183-1.085.082-.7.183m-13.009.413c.71.088 1.97.09 2.8.003s.249-.159-1.291-.161-2.219.069-1.509.158m7.6 0c.71.088 1.97.09 2.8.003s.249-.159-1.291-.161-2.219.069-1.509.158m-57.691 4.346-1.2 1.031 1.3-.86c.715-.473 1.3-.938 1.3-1.033 0-.3-.169-.195-1.4.862m-11.209 9.465-3.191 3.3 3.3-3.191 3.191-3.409c-.061 0-1.546 1.485-3.3 3.3m133.409.5 2.777 2.6c.11 0-.96-1.17-2.377-2.6l-2.777-2.6c-.11 0 .96 1.17 2.377 2.6m-141.6 8.6c-.697.88-1.177 1.6-1.067 1.6s.77-.72 1.467-1.6 1.177-1.6 1.067-1.6-.77.72-1.467 1.6m149.2 0c.697.88 1.357 1.6 1.467 1.6s-.37-.72-1.067-1.6-1.357-1.6-1.467-1.6.37.72 1.067 1.6m2.4 3.2c.47.66.944 1.2 1.054 1.2s-.184-.54-.654-1.2-.944-1.2-1.054-1.2.184.54.654 1.2m-171.086 45.8c.003 1.1.081 1.503.173.895s.09-1.509-.005-2-.171.005-.168 1.105m188.4 0c.003 1.1.081 1.503.173.895s.09-1.509-.005-2-.171.005-.168 1.105m-188.741 12.6.126 4.9v-9.8c-.069-2.695-.126-.49-.126 4.9m189.2 0 .126 4.9v-9.8c-.069-2.695-.126-.49-.126 4.9M153.1 315.5h93.8c25.795-.057 4.69-.103-46.9-.103l-46.9.103" fill="#95969b"/><path d="M138.914 145.8c.003 1.1.081 1.503.173.895s.09-1.509-.005-2-.171.005-.168 1.105m122 0c.003 1.1.081 1.503.173.895s.09-1.509-.005-2-.171.005-.168 1.105M156.8 188.925c0 .069.585.654 1.3 1.3l1.3 1.175-1.175-1.3c-1.095-1.212-1.425-1.484-1.425-1.175m84.975 1.175-1.175 1.3 1.3-1.175c.715-.646 1.3-1.231 1.3-1.3 0-.309-.33-.037-1.425 1.175M195.3 206.676c.385.1 1.015.1 1.4 0s.07-.183-.7-.183-1.085.082-.7.183m8 0c.385.1 1.015.1 1.4 0s.07-.183-.7-.183-1.085.082-.7.183m-4.6 14.013c.715.089 1.885.089 2.6 0s.13-.161-1.3-.161-2.015.073-1.3.161M135.178 232.7l-1.378 1.5 1.5-1.378c1.396-1.284 1.684-1.622 1.378-1.622-.066 0-.741.675-1.5 1.5m128.422-.975c0 .069.585.654 1.3 1.3l1.3 1.175-1.175-1.3c-1.095-1.212-1.425-1.484-1.425-1.175m4 4c0 .069.585.654 1.3 1.3l1.3 1.175-1.175-1.3c-1.095-1.212-1.425-1.484-1.425-1.175M105.714 296.6c.003 1.1.081 1.503.173.895s.09-1.509-.005-2-.171.005-.168 1.105m188.4 0c.003 1.1.081 1.503.173.895s.09-1.509-.005-2-.171.005-.168 1.105" fill="#747c7c"/></svg>